<svg enable-background="new 0 0 256 256" height="256" viewBox="0 0 256 256" width="256" xmlns="http://www.w3.org/2000/svg"><path d="m48.978 249.887c-8.569 0-17.09-5.277-20.721-12.836l-20.376-42.444c-2.54-5.289-2.379-10.896.442-15.381 2.822-4.486 7.807-7.061 13.677-7.061h1.321c-3.567-4.139-3.571-9.413-3.495-12.257-.19-4.99-.786-44.288 24.905-84.617 29.044-45.582 66.651-61.321 68.238-61.968l.643-.268c2.022-.845 4.113-1.719 6.725-1.719 1.86 0 11.144.646 11.144 13.402v49.482c2.273-1.021 4.367-1.087 4.859-1.087 2.307 0 4.408.643 6.18 1.298 3.121 1.034 25.817 9.155 47.723 33.278 21.266 23.417 26.56 45.868 27.314 49.567 1.217 4.779.59 8.834-1.867 12.057-.629.824-1.635 1.898-3.105 2.832h28.75c10.064 0 13.053 6.408 13.729 8.373.676 1.964 2.266 8.854-5.666 15.048l-38.313 29.921c-5.398 4.217-14.261 7.835-21.07 8.604l-138.785 15.651c-.738.084-1.496.125-2.252.125z" fill="#d1d1d1"/><path d="m204.927 217.627c-3.899 3.046-11.116 5.993-16.036 6.548l-138.781 15.649c-4.919.555-10.696-2.643-12.839-7.104l-20.375-42.441c-2.143-4.461.154-8.112 5.104-8.112h219.333c4.95 0 5.808 2.493 1.907 5.539zm-175.094-57.793c-.13 4.404.284 7.063 4.691 7.063h78.943c4.407 0 8.013-3.604 8.013-8.013v-134.144c0-4.407-.658-3.84-4.731-2.157 0 0-35.915 14.66-63.583 58.083-25.495 40.021-23.333 79.168-23.333 79.168zm177.972-.314c.725 2.644.668 4.701-2.82 4.701h-63.883c-3.488 0-6.343-2.854-6.343-6.343v-71.296c0-3.489.472-4.205 4.464-2.705 0 0 22.102 6.863 43.615 30.557 21.1 23.235 24.967 45.086 24.967 45.086z" fill="#464646"/></svg>